<svg width="25" height="25" viewBox="0 0 25 25" fill="none" xmlns="http://www.w3.org/2000/svg">
<g id="_10" clip-path="url(#clip0_449_3950)">
<path id="Vector" d="M17.8144 0H7.18507C3.21687 0 0 3.16309 0 7.06543V17.9351C0 21.8369 3.21687 25.0005 7.18507 25.0005H17.8144C21.7826 25.0005 25 21.8374 25 17.9351V7.06543C25 3.16357 21.7831 0.000488281 17.8149 0.000488281L17.8144 0ZM2.55095 7.06543C2.55095 4.55273 4.62965 2.50879 7.18507 2.50879H17.8144C20.3699 2.50879 22.4486 4.55273 22.4486 7.06543V17.9351C22.4486 20.4478 20.3699 22.4917 17.8144 22.4917H7.18507C4.62965 22.4917 2.55095 20.4478 2.55095 17.9351V7.06543Z" fill="white"/>
<path id="Vector_2" d="M12.5001 18.938C16.1103 18.938 19.0475 16.0498 19.0475 12.5C19.0475 8.9502 16.1103 6.06152 12.5001 6.06152C8.88993 6.06152 5.95264 8.94971 5.95264 12.5C5.95264 16.0503 8.88993 18.938 12.5001 18.938ZM12.5001 8.06836C14.985 8.06836 17.0066 10.0562 17.0066 12.5C17.0066 14.9438 14.985 16.9316 12.5001 16.9316C10.0152 16.9316 7.99359 14.9438 7.99359 12.5C7.99359 10.0562 10.0152 8.06836 12.5001 8.06836Z" fill="white"/>
<path id="Vector_3" d="M19.2391 7.31641C20.0493 7.31641 20.706 6.67063 20.706 5.87402C20.706 5.07742 20.0493 4.43164 19.2391 4.43164C18.429 4.43164 17.7722 5.07742 17.7722 5.87402C17.7722 6.67063 18.429 7.31641 19.2391 7.31641Z" fill="white"/>
</g>
<defs>
<clipPath id="clip0_449_3950">
<rect width="25" height="25" fill="white"/>
</clipPath>
</defs>
</svg>
