<svg width="123" height="58" viewBox="0 0 123 58" fill="none" xmlns="http://www.w3.org/2000/svg">
<g id="logo" clip-path="url(#clip0_449_3922)">
<path id="Vector" d="M14.2012 36.952C14.3278 36.952 14.4333 36.9629 14.5389 36.9629C17.0394 36.9629 19.5399 36.9737 22.051 36.9629C23.3065 36.952 24.5515 36.7893 25.712 36.2251C26.0497 36.0624 26.3662 35.8237 26.7144 35.6067C26.7144 35.6935 26.7355 35.7694 26.7355 35.8562C26.7355 39.3822 26.7355 42.9082 26.7355 46.4342C26.7355 46.7272 26.6089 46.814 26.3767 46.8357C25.6382 46.8791 24.8996 46.955 24.1505 46.955C16.2586 46.955 8.3667 46.955 0.485332 46.955C0.161777 46.955 0 46.7959 0 46.4776C0 31.1368 0 15.8069 0 0.466034C0 0.155023 0.144193 -0.000483145 0.432578 -0.000483145C9.23186 -0.000483145 18.0417 -0.0221816 26.841 0.0103661C29.352 0.0103661 31.8314 0.422637 34.0787 1.6703C37.2862 3.44957 39.2908 6.16188 39.8394 9.89402C40.2509 12.7257 39.7867 15.3946 38.2041 17.814C36.9907 19.6692 35.2815 20.8517 33.298 21.6546C33.0659 21.7522 32.8232 21.8499 32.5911 21.9475C32.5911 21.9801 32.5911 22.0018 32.5911 22.0343C32.9182 22.132 33.2347 22.2187 33.5618 22.3164C35.3976 22.8806 37.1279 23.6617 38.605 24.9419C40.3353 26.4608 41.3693 28.392 41.8441 30.6703C42.0762 31.7769 42.15 32.8944 42.1395 34.0227C42.1395 34.1095 42.1289 34.2071 42.1184 34.3156C41.7069 34.218 41.3165 34.0987 40.9261 34.0336C40.4092 33.9576 39.8922 33.8708 39.3752 33.8708C35.6613 33.86 31.937 33.8708 28.2231 33.8708H27.8327C27.9066 33.5128 27.9804 33.1765 28.0332 32.8293C28.4341 30.3882 27.1786 28.3594 24.8258 27.7519C23.9606 27.524 23.0533 27.3938 22.1565 27.3721C19.6032 27.3179 17.0499 27.3613 14.4967 27.3504C14.2751 27.3504 14.159 27.383 14.159 27.6651C14.159 30.6703 14.159 33.6755 14.159 36.6916C14.159 36.7676 14.1696 36.8544 14.1801 36.952H14.2012ZM14.1801 18.4866C14.3384 18.4866 14.4545 18.4866 14.5705 18.4866C16.5857 18.4866 18.6114 18.5083 20.6266 18.4758C21.4179 18.4649 22.2092 18.3781 22.9794 18.2262C24.562 17.9116 25.6382 16.9569 26.0286 15.3078C26.2185 14.5158 26.2396 13.7129 26.0919 12.9101C25.8492 11.5756 25.1423 10.5884 23.8973 10.0568C22.9689 9.65534 21.9771 9.52514 20.9853 9.5143C18.833 9.50345 16.6806 9.5143 14.5283 9.50345C14.2329 9.50345 14.159 9.59024 14.159 9.88317C14.1696 12.628 14.159 15.3837 14.159 18.1286V18.4975L14.1801 18.4866Z" fill="white"/>
<path id="Vector_2" d="M85.9988 44.8941C85.8933 44.9918 85.8194 45.046 85.7667 45.1111C84.1524 47.0206 80.5546 47.1399 78.8982 44.2323C78.4445 43.4295 78.2335 42.5615 78.1491 41.6502C78.0541 40.587 78.1174 39.5454 78.4128 38.5256C78.9193 36.7897 80.2592 35.6614 82.0106 35.4661C83.1607 35.3468 84.2579 35.4661 85.218 36.2039C85.5451 36.4534 85.8089 36.7897 86.0937 37.0935C86.1571 37.1586 86.1782 37.2563 86.2098 37.343C86.2626 37.3105 86.3153 37.2888 86.3681 37.2563C86.3681 36.9416 86.3681 36.627 86.3681 36.3232C86.3681 35.5529 86.2731 35.6614 87.0011 35.6614C87.9612 35.6614 88.9319 35.6614 89.892 35.6614C90.1452 35.6614 90.2402 35.7157 90.2402 36.0086C90.2402 39.6539 90.2613 43.3101 90.2191 46.9555C90.198 48.7564 89.2273 50.6768 86.9695 51.2192C84.9754 51.7074 82.9707 51.6749 80.9872 51.1758C79.7 50.8503 78.8138 50.0367 78.5078 48.6696C78.4128 48.2357 78.4234 47.78 78.3812 47.2918C79.0248 47.3569 79.584 47.422 80.1537 47.4762C80.8079 47.5522 81.462 47.639 82.1267 47.6932C82.3482 47.7149 82.496 47.7692 82.5804 48.0078C82.7808 48.5612 83.2345 48.789 83.7515 48.8541C84.1313 48.8975 84.5428 48.8758 84.9121 48.789C85.619 48.6154 85.9355 48.0404 85.9988 47.346C86.0621 46.6083 86.041 45.8597 86.0621 45.1219C86.0621 45.0786 86.041 45.0243 86.0093 44.905L85.9988 44.8941ZM86.1149 41.1186C86.0726 40.5436 85.9882 40.0011 85.7139 39.502C85.313 38.786 84.5956 38.428 83.7831 38.5365C83.1079 38.6233 82.5909 39.144 82.3905 39.936C82.2111 40.6521 82.2111 41.3898 82.3588 42.1167C82.5276 42.9846 83.1923 43.5705 83.952 43.6031C84.9332 43.6465 85.6401 43.1799 85.9144 42.2686C86.0199 41.8997 86.0515 41.5092 86.1254 41.1186H86.1149Z" fill="white"/>
<path id="Vector_3" d="M75.6273 17.3154V12.021H79.8687V27.6113H75.9333V25.9731C75.7223 26.2118 75.5746 26.3745 75.4269 26.5373C74.4562 27.6656 73.2007 27.9911 71.7974 27.85C70.3414 27.709 69.2758 26.917 68.6217 25.5934C67.4822 23.2933 67.3978 20.9174 68.4001 18.5739C69.1703 16.7621 71.0589 15.8182 72.9686 16.0678C73.9709 16.2088 74.836 16.5994 75.6168 17.3154H75.6273ZM71.9135 22.0348C71.9979 22.4905 72.0401 23.0004 72.1772 23.4778C72.3883 24.183 73.0002 24.6495 73.6332 24.6821C74.414 24.7146 75.0681 24.3457 75.353 23.6297C75.7645 22.5665 75.7961 21.4707 75.3741 20.4075C75.0681 19.6372 74.3612 19.2466 73.5277 19.3117C72.8947 19.3551 72.3355 19.8541 72.135 20.6244C72.019 21.0693 71.9873 21.5358 71.9135 22.0457V22.0348Z" fill="#DBDBDB"/>
<path id="Vector_4" d="M71.998 45.3497C71.7765 45.5884 71.5654 45.8379 71.3439 46.0658C70.4365 46.9879 69.3181 47.2809 68.0837 47.1724C66.0896 47.0096 64.9607 45.7511 64.3593 43.9285C63.7368 42.0515 63.7052 40.1312 64.4226 38.2652C65.0557 36.6269 66.2584 35.6722 67.9888 35.466C69.3393 35.3033 70.5315 35.6288 71.5443 36.5944C71.5971 36.6378 71.6499 36.6812 71.7554 36.768C71.7554 36.6052 71.7765 36.4967 71.7765 36.3774C71.7765 34.8259 71.7765 33.2745 71.7765 31.7231C71.7765 31.4518 71.8609 31.365 72.1246 31.3759C73.3063 31.3867 74.4985 31.3867 75.6802 31.3759C75.9545 31.3759 76.0178 31.4627 76.0178 31.7339C76.0178 36.692 76.0178 41.6501 76.0178 46.6082C76.0178 46.8794 75.9334 46.9662 75.6697 46.9554C74.5829 46.9445 73.4962 46.9445 72.4095 46.9554C72.1352 46.9554 72.0613 46.8577 72.0719 46.5974C72.093 46.1851 72.0719 45.7728 72.0719 45.3606C72.0508 45.3606 72.0191 45.3497 71.998 45.3389V45.3497ZM71.8925 41.3029C71.787 40.8147 71.7343 40.3048 71.576 39.8383C71.3228 39.0788 70.5842 38.5906 69.8351 38.6015C69.1177 38.6123 68.4952 39.0897 68.2631 39.8708C67.9782 40.8364 67.9677 41.8237 68.2631 42.7893C68.4952 43.5813 69.1493 44.0803 69.8773 44.0912C70.637 44.102 71.3439 43.6247 71.5865 42.8218C71.7343 42.3336 71.787 41.8237 71.8925 41.3029Z" fill="white"/>
<path id="Vector_5" d="M47.3303 16.3171H51.519V27.6112H47.6152V25.897C47.3198 26.1791 47.056 26.4395 46.7817 26.689C45.389 27.9801 43.7642 28.1753 42.055 27.6003C40.7678 27.1664 40.177 26.0923 39.9765 24.7687C39.9237 24.3998 39.8921 24.0309 39.8921 23.6621C39.8921 21.362 39.8921 19.0511 39.8921 16.7511V16.328H44.1124C44.1124 16.4473 44.1124 16.5667 44.1124 16.6969C44.1124 18.704 44.1124 20.7111 44.1124 22.7073C44.1124 22.9243 44.144 23.1413 44.1862 23.3474C44.3339 24.0201 44.7454 24.4107 45.3784 24.4758C46.0959 24.5517 46.7817 24.2045 47.0138 23.5319C47.1826 23.0437 47.2881 22.5121 47.2987 21.9913C47.3303 20.212 47.3198 18.4327 47.3198 16.6643C47.3198 16.5558 47.3198 16.4473 47.3198 16.3171H47.3303Z" fill="#DBDBDB"/>
<path id="Vector_6" d="M94.7664 23.0439H86.3153C86.1465 23.9661 86.9272 25.0835 87.8874 25.2897C88.7631 25.4741 89.5227 25.2571 90.1241 24.5519C90.2718 24.3892 90.409 24.3241 90.62 24.3458C91.8861 24.476 93.1627 24.5953 94.5343 24.7255C94.1756 25.2029 93.8907 25.6368 93.5531 26.0383C92.7512 26.9713 91.7278 27.4921 90.5356 27.6982C89.1112 27.9369 87.6763 27.9477 86.252 27.6982C83.7304 27.2642 82.4115 25.1595 82.0845 23.3585C81.8629 22.1542 81.8946 20.95 82.306 19.7891C82.9918 17.8471 84.3845 16.6862 86.3259 16.2523C87.8029 15.9159 89.2906 15.9702 90.7466 16.339C92.8989 16.8815 94.3127 18.5414 94.6081 20.8198C94.7031 21.5467 94.7242 22.2736 94.7875 23.0547L94.7664 23.0439ZM90.3668 20.9717C90.4512 20.2014 90.0292 19.2358 89.3961 18.8886C88.6787 18.498 87.9401 18.4872 87.2543 18.9429C86.558 19.4094 86.3258 20.1363 86.2731 20.9717H90.3668Z" fill="#DBDBDB"/>
<path id="Vector_7" d="M96.581 42.3662C96.5599 43.8959 97.7521 45.0893 99.4191 44.6228C99.8517 44.5035 100.189 44.2431 100.495 43.9176C100.601 43.8091 100.791 43.7223 100.928 43.7332C101.877 43.8091 102.816 43.9176 103.766 44.0152C104.061 44.0478 104.357 44.0695 104.684 44.102C104.663 44.178 104.652 44.2322 104.631 44.2756C103.66 45.9356 102.257 46.9011 100.369 47.0856C99.6723 47.1507 98.9654 47.2266 98.2691 47.1941C97.4989 47.1507 96.697 47.0856 95.9585 46.8577C93.9011 46.2285 92.8038 44.677 92.4029 42.5831C92.1391 41.2161 92.2552 39.86 92.8671 38.6015C93.7217 36.8222 95.1777 35.8783 97.0346 35.5528C98.3746 35.325 99.7145 35.3792 101.033 35.7264C103.165 36.2797 104.399 37.7227 104.81 39.9142C104.937 40.6086 104.937 41.3246 105 42.0298C105.022 42.3011 104.927 42.3879 104.663 42.377C102.088 42.377 99.5141 42.377 96.9502 42.377C96.8342 42.377 96.7181 42.377 96.5704 42.377L96.581 42.3662ZM98.6489 40.3699C99.2608 40.3699 99.8728 40.3699 100.485 40.3699C100.706 40.3699 100.801 40.3048 100.738 40.0553C100.654 39.7623 100.622 39.4477 100.516 39.1548C100.189 38.2217 99.3136 37.8095 98.3851 37.9288C97.309 38.0699 96.697 38.9486 96.5599 40.077C96.5282 40.3048 96.6337 40.359 96.8342 40.359C97.4356 40.359 98.037 40.359 98.6383 40.359L98.6489 40.3699Z" fill="white"/>
<path id="Vector_8" d="M122.631 19.0729C121.586 19.1814 120.584 19.279 119.571 19.3767C119.476 19.3767 119.371 19.3875 119.276 19.4092C118.906 19.4852 118.6 19.5069 118.421 19.0295C118.284 18.6498 117.894 18.4653 117.524 18.4219C117.071 18.3677 116.606 18.3677 116.163 18.4436C115.752 18.5087 115.499 18.8668 115.488 19.2139C115.488 19.5503 115.699 19.8432 116.153 19.9408C116.891 20.1036 117.63 20.2121 118.379 20.3206C119.307 20.4616 120.225 20.6026 121.08 21.0149C123.601 22.23 123.475 25.257 121.65 26.7108C120.806 27.3834 119.814 27.6872 118.78 27.7957C117.239 27.9584 115.71 27.9476 114.201 27.557C112.639 27.1556 111.658 26.1357 111.247 24.4867C111.563 24.4541 111.869 24.4216 112.175 24.389C113.167 24.2914 114.159 24.2046 115.14 24.0961C115.351 24.0744 115.456 24.1286 115.541 24.3348C115.847 25.0834 116.427 25.4739 117.218 25.4739C117.556 25.4739 117.904 25.4414 118.231 25.3763C118.4 25.3438 118.569 25.2353 118.716 25.1376C119.001 24.9532 119.149 24.6819 119.107 24.3239C119.065 23.9767 118.843 23.7489 118.548 23.6621C117.925 23.4885 117.303 23.3583 116.67 23.2173C115.762 23.0112 114.834 22.8593 113.948 22.5772C112.122 21.9913 111.247 20.0276 111.985 18.2918C112.376 17.3587 113.104 16.7729 114.021 16.4908C114.686 16.2846 115.382 16.1545 116.079 16.0894C117.303 15.9809 118.527 15.9917 119.729 16.2738C121.206 16.621 122.103 17.6082 122.631 19.0729Z" fill="#DBDBDB"/>
<path id="Vector_9" d="M65.562 27.6222H61.3523V12.021H65.562V27.6222Z" fill="#DBDBDB"/>
<path id="Vector_10" d="M104.083 19.7131C103.829 19.6371 103.629 19.5612 103.418 19.4961C102.489 19.2466 101.793 19.5937 101.413 20.4942C101.086 21.2862 100.991 22.1325 100.981 22.9787C100.96 24.3891 100.96 25.8104 100.949 27.2208C100.949 27.3401 100.949 27.4594 100.949 27.6005C100.865 27.6005 100.822 27.6222 100.77 27.6222C99.4297 27.6222 98.1003 27.6222 96.7393 27.6222V16.3173H100.664V17.9555C100.664 17.9555 100.706 17.9772 100.727 17.9989C101.192 17.1527 101.666 16.3281 102.69 16.1111C103.65 15.9159 104.515 16.1762 105.37 16.6211C105.349 16.6753 105.338 16.7295 105.328 16.7729C104.916 17.7494 104.505 18.7258 104.093 19.7131H104.083Z" fill="#DBDBDB"/>
<path id="Vector_11" d="M51.9305 37.4407C52.0782 37.1912 52.2154 36.9525 52.3631 36.703C52.8906 35.8133 53.6714 35.3468 54.6737 35.4336C55.2434 35.4879 55.792 35.7265 56.3512 35.8893C56.5306 35.9435 56.5306 36.0629 56.4673 36.2256C56.098 37.0827 55.7393 37.9506 55.3806 38.8077C55.3067 38.9922 55.2118 38.9813 55.0535 38.9379C54.6842 38.8403 54.315 38.7101 53.9457 38.7318C53.281 38.7643 52.8168 39.1983 52.6163 39.8276C52.4158 40.4894 52.2365 41.1837 52.2048 41.8672C52.131 43.4295 52.1415 45.0026 52.131 46.5758C52.131 46.847 52.0677 46.9555 51.7828 46.9555C50.6222 46.9338 49.4511 46.9447 48.2905 46.9555C48.0478 46.9555 47.9529 46.8904 47.9634 46.63C47.9634 43.0823 47.9634 39.5455 47.9634 35.9978C47.9634 35.7482 48.0267 35.6506 48.2905 35.6614C49.3667 35.6723 50.4428 35.6723 51.519 35.6614C51.7933 35.6614 51.8672 35.7591 51.8566 36.0195C51.8355 36.3883 51.8566 36.7681 51.8566 37.1369C51.8566 37.2346 51.8672 37.3322 51.8777 37.4299C51.9094 37.4299 51.941 37.4299 51.9621 37.4407H51.9305Z" fill="white"/>
<path id="Vector_12" d="M46.3597 47.8777C47.1299 48.6263 47.5836 49.5268 47.7524 50.5574C48.0161 52.1848 47.8262 53.7471 46.9083 55.1575C45.9588 56.6222 44.6083 57.3816 42.9202 57.642C40.8522 57.9675 38.7737 58.0217 36.6847 58.0109C33.9943 57.9892 31.2933 58.0109 28.6029 58.0109C28.318 58.0109 28.2125 57.9349 28.223 57.6311C28.2441 57.1646 28.2441 56.6981 28.223 56.2316C28.2125 55.9604 28.2969 55.8844 28.5607 55.8844C31.8419 55.8844 35.1337 55.917 38.415 55.8844C39.9343 55.8627 41.4747 55.7434 42.9202 55.2118C44.8615 54.4957 45.9799 52.9877 46.4335 50.9372C46.6445 49.9933 46.6129 49.0277 46.3808 48.0838C46.3702 48.0296 46.3702 47.9753 46.3597 47.8885V47.8777Z" fill="#45413F"/>
<path id="Vector_13" d="M58.4615 27.6112H54.2834V16.3171H58.4615V27.6112Z" fill="#DBDBDB"/>
<path id="Vector_14" d="M61.6583 41.314C61.6583 43.0715 61.6583 44.8291 61.6583 46.5867C61.6583 46.8905 61.5634 46.9664 61.2785 46.9664C60.139 46.9556 59.0101 46.9556 57.8706 46.9664C57.6069 46.9664 57.5225 46.8905 57.5225 46.6192C57.5225 43.0824 57.5225 39.5455 57.5225 36.0195C57.5225 35.7483 57.6069 35.6724 57.8706 35.6724C59.0101 35.6832 60.139 35.6832 61.2785 35.6724C61.5634 35.6724 61.6583 35.7483 61.6583 36.0521C61.6478 37.8097 61.6583 39.5672 61.6583 41.3248V41.314Z" fill="white"/>
<path id="Vector_15" d="M105.708 12.01H109.875C109.875 12.0751 109.896 12.1402 109.907 12.1944C109.981 13.7242 109.864 15.2431 109.464 16.7294C109.4 16.979 109.358 17.2285 109.305 17.4889C109.274 17.6516 109.21 17.7384 109.031 17.7276C108.219 17.7276 107.406 17.7276 106.594 17.7276C106.425 17.7276 106.362 17.6625 106.33 17.5106C106.13 16.5558 105.845 15.612 105.729 14.6355C105.623 13.7784 105.708 12.9105 105.708 12.01Z" fill="#DBDBDB"/>
<path id="Vector_16" d="M42.1606 44.178C44.7667 43.1907 45.9167 40.8039 45.2836 37.8638C45.7162 38.276 46.0222 38.7209 46.2543 39.2091C47.1933 41.1728 46.8663 43.7224 45.2836 45.1978C44.9038 45.5559 44.9038 45.5559 44.5029 45.2521C43.8066 44.7422 43.0364 44.4167 42.1606 44.178Z" fill="#45413F"/>
<path id="Vector_17" d="M58.4615 14.896H54.2939V12.021C54.3995 12.021 54.4944 11.9993 54.5894 11.9993C55.7816 11.9993 56.9738 11.9993 58.1766 11.9993C58.4298 11.9993 58.5037 12.0752 58.4931 12.3247C58.4826 13.0842 58.4931 13.8545 58.4931 14.6139C58.4931 14.7007 58.4826 14.7984 58.472 14.896H58.4615Z" fill="#DBDBDB"/>
<path id="Vector_18" d="M59.5798 34.2403C58.989 34.2403 58.3981 34.2403 57.8073 34.2403C57.5963 34.2403 57.5224 34.1643 57.533 33.9474C57.533 33.1879 57.533 32.4176 57.533 31.6582C57.533 31.4412 57.6068 31.3652 57.8073 31.3652C58.9995 31.3652 60.1917 31.3652 61.3945 31.3652C61.595 31.3652 61.6583 31.4412 61.6583 31.6365C61.6583 32.4068 61.6583 33.1879 61.6583 33.9582C61.6583 34.1535 61.5844 34.2294 61.3945 34.2294C60.7931 34.2294 60.1917 34.2294 59.5903 34.2294L59.5798 34.2403Z" fill="white"/>
<path id="Vector_19" d="M46.3808 48.0729C45.3679 45.1979 44.0491 44.7965 42.2449 44.1889C43.2578 43.8851 45.7056 42.5398 45.6528 39.0681C45.5262 37.0501 43.9858 34.2185 40.8417 33.893C35.7985 33.3722 26.7249 33.8713 26.7249 33.8713V56.0146C26.7249 56.0146 37.5815 55.9386 39.7444 55.8627C42.0656 55.7867 47.6785 54.6584 46.3808 48.0621V48.0729ZM33.7622 38.4388C34.8278 38.4497 35.8934 38.428 36.9485 38.4714C37.3389 38.4822 37.7398 38.6015 38.0985 38.7643C38.6577 39.0247 38.932 39.5237 38.9637 40.1421C38.9742 40.4134 38.9848 40.6846 38.932 40.945C38.7843 41.7261 38.2568 42.236 37.4127 42.3662C36.9274 42.4422 36.442 42.4747 35.9462 42.4856C35.2393 42.5073 34.5429 42.4856 33.836 42.4856C33.5758 42.4856 33.4456 42.3481 33.4456 42.0733C33.4456 41.5308 33.4456 40.9775 33.4456 40.4351C33.4456 39.8818 33.4456 39.3176 33.4456 38.7643C33.4456 38.5256 33.509 38.428 33.7516 38.4388H33.7622ZM39.8288 48.7781C39.9554 51.5664 33.4562 51.0456 33.4562 50.8829C33.4562 49.5918 33.4562 48.3008 33.4562 47.0097C33.4562 46.8036 33.5512 46.771 33.72 46.771C34.3214 46.771 37.2756 46.7927 38.1407 46.9121C38.9426 47.0205 39.5334 47.4654 39.7655 48.3116C39.7761 48.3659 39.7972 48.4092 39.7972 48.4635C39.8077 48.5503 39.8077 48.5937 39.8183 48.6588C39.8183 48.6696 39.8183 48.6805 39.8183 48.6913C39.8183 48.713 39.8183 48.7347 39.8183 48.7564C39.8183 48.7673 39.8183 48.7781 39.8183 48.789L39.8288 48.7781Z" fill="#DBDBDB"/>
</g>
<defs>
<clipPath id="clip0_449_3922">
<rect width="123" height="58" fill="white"/>
</clipPath>
</defs>
</svg>
