<svg width="170" height="169" viewBox="0 0 170 169" fill="none" xmlns="http://www.w3.org/2000/svg">
<circle cx="85" cy="84.5" r="84.5" fill="#45413F"/>
<g clip-path="url(#clip0_54_2981)">
<path d="M65.5147 101.178C68.0717 101.178 70.4423 100.171 72.1896 98.3442C73.9262 96.5277 74.8851 94.0613 74.8851 91.4031C74.8851 86.1133 70.6873 81.6119 65.7065 81.564H65.6479C63.2028 81.564 60.7417 82.672 58.8985 84.611C57.0713 86.5288 56.0325 89.0645 56.0485 91.5735C56.0645 94.0506 57.0607 96.4265 58.8559 98.275C60.6724 100.139 63.0217 101.173 65.5147 101.184V101.178ZM60.5446 86.1772C61.9616 84.691 63.8207 83.8386 65.6426 83.8386H65.6905C69.4408 83.8759 72.6051 87.3385 72.6051 91.4031C72.6051 93.4753 71.8699 95.3824 70.5382 96.7728C69.2277 98.1471 67.4431 98.9036 65.4881 98.9036C63.6503 98.8929 61.871 98.1045 60.486 96.6822C59.1009 95.2599 58.3338 93.438 58.3232 91.5576C58.3125 89.6345 59.1222 87.6794 60.5446 86.1825V86.1772Z" fill="white"/>
<path d="M73.2497 105.573C70.7939 105.275 68.3008 105.12 65.8397 105.115C63.2774 105.12 60.6884 105.264 58.1421 105.568C53.2092 106.164 49.4856 110.389 49.4856 115.391V133.221C49.4856 133.849 49.997 134.361 50.6256 134.361C51.2542 134.361 51.7656 133.849 51.7656 133.221V115.391C51.7656 111.539 54.6262 108.29 58.4191 107.826C60.8696 107.528 63.3786 107.395 65.8344 107.39C68.2103 107.395 70.6128 107.544 72.978 107.832C76.7602 108.29 79.6155 111.539 79.6155 115.391V133.221C79.6155 133.849 80.1269 134.361 80.7555 134.361C81.3841 134.361 81.8955 133.849 81.8955 133.221V115.391C81.8955 110.389 78.1825 106.17 73.255 105.573H73.2497Z" fill="white"/>
<path d="M104.775 81.564C102.33 81.564 99.8742 82.672 98.0257 84.611C96.1985 86.5288 95.1597 89.0645 95.1757 91.5735C95.1917 94.0506 96.1879 96.4265 97.9831 98.275C99.7996 100.139 102.149 101.173 104.642 101.184C107.199 101.184 109.569 100.177 111.317 98.3496C113.053 96.533 114.012 94.0666 114.012 91.4084C114.012 86.1239 109.815 81.6172 104.834 81.5693H104.775V81.564ZM111.738 91.4031C111.738 93.4753 111.002 95.3824 109.671 96.7728C108.36 98.1471 106.576 98.9036 104.621 98.9036C102.783 98.8929 101.004 98.1045 99.6185 96.6822C98.2335 95.2599 97.4664 93.4433 97.4557 91.5576C97.4451 89.6345 98.2548 87.6741 99.6771 86.1825C101.094 84.6963 102.953 83.844 104.775 83.844H104.823C108.573 83.8812 111.738 87.3438 111.738 91.4084V91.4031Z" fill="white"/>
<path d="M112.377 105.573C109.926 105.275 107.428 105.12 104.962 105.115C102.399 105.115 99.8103 105.264 97.2639 105.568C92.331 106.164 88.6074 110.389 88.6074 115.391V133.221C88.6074 133.849 89.1188 134.361 89.7474 134.361C90.376 134.361 90.8874 133.849 90.8874 133.221V115.391C90.8874 111.539 93.748 108.29 97.5409 107.826C99.9967 107.528 102.468 107.368 104.956 107.39C107.332 107.395 109.735 107.544 112.1 107.832C115.882 108.29 118.737 111.539 118.737 115.391V133.221C118.737 133.849 119.249 134.361 119.877 134.361C120.506 134.361 121.017 133.849 121.017 133.221V115.391C121.017 110.389 117.304 106.17 112.377 105.573Z" fill="white"/>
<path d="M94.1903 62.9831V59.8721C94.1903 59.8348 94.185 59.8029 94.1796 59.7709L94.2169 59.7389H109.527C113.325 59.7389 116.415 56.6492 116.415 52.851V41.8879C116.415 38.0897 113.325 35 109.527 35H84.4045C80.6063 35 77.5166 38.0897 77.5166 41.8879V42.0317H56.4533C52.0691 42.0317 48.5 45.6009 48.5 49.9851V62.9831C48.5 67.3673 52.0691 70.9364 56.4533 70.9364H75.4603L83.4349 77.2064C83.6374 77.3662 83.8877 77.4461 84.1328 77.4461C84.3565 77.4461 84.5803 77.3822 84.7774 77.2437C85.1875 76.9614 85.3633 76.4446 85.2142 75.9705L83.6214 70.9311H87.5528C91.5854 70.9311 94.1903 67.8094 94.1903 62.9778V62.9831ZM79.7806 41.8879C79.7806 39.3416 81.8528 37.264 84.4045 37.264H109.527C112.073 37.264 114.151 39.3362 114.151 41.8879V52.8564C114.151 55.4027 112.079 57.4802 109.527 57.4802H93.8227C93.567 57.4802 93.322 57.5655 93.1249 57.72L89.023 60.9428L89.6516 58.9505C89.7582 58.6043 89.6996 58.2314 89.4865 57.9384C89.2734 57.6454 88.9325 57.4749 88.5756 57.4749H83.2964C80.1268 57.4749 79.7859 54.2414 79.7859 52.851V41.8879H79.7806ZM82.0765 68.6724C81.7143 68.6724 81.3787 68.8429 81.1656 69.1359C80.9525 69.4289 80.8886 69.8018 81.0005 70.148L81.954 73.1578L76.5524 68.9121C76.3553 68.7577 76.1049 68.6724 75.8545 68.6724H56.4533C53.3157 68.6724 50.764 66.1208 50.764 62.9831V49.9851C50.764 46.8474 53.3157 44.2957 56.4533 44.2957H77.5166V52.851C77.5166 57.0328 79.7806 59.7389 83.2911 59.7389H87.0254L85.7575 63.7555C85.6084 64.2297 85.7842 64.7464 86.1944 65.0287C86.3915 65.1619 86.6152 65.2311 86.8389 65.2311C87.084 65.2311 87.3344 65.1512 87.5368 64.9914L91.9263 61.5448V62.9884C91.9263 64.6984 91.5001 68.6778 87.5581 68.6778H82.0819L82.0765 68.6724Z" fill="white"/>
</g>
<defs>
<clipPath id="clip0_54_2981">
<rect width="72.5174" height="99.3606" fill="white" transform="translate(48.5 35)"/>
</clipPath>
</defs>
</svg>
