<svg width="25" height="25" viewBox="0 0 25 25" fill="none" xmlns="http://www.w3.org/2000/svg">
<g id="Footers/Social icon" clip-path="url(#clip0_449_3948)">
<path id="Icon" fill-rule="evenodd" clip-rule="evenodd" d="M24.9007 12.4999C24.9007 5.65096 19.3489 0.0991211 12.4999 0.0991211C5.65096 0.0991211 0.0991211 5.65096 0.0991211 12.4999C0.0991211 18.6891 4.63409 23.8194 10.5629 24.7494V16.085H7.41311V12.4999H10.5629V9.76802C10.5629 6.66038 12.4131 4.94411 15.2467 4.94411C16.6033 4.94411 18.022 5.18593 18.022 5.18593V8.23652H16.4595C14.9181 8.23652 14.4382 9.19262 14.4382 10.1735V12.4999H17.8769L17.3275 16.0837H14.4382V24.7494C20.3657 23.8194 24.9007 18.6891 24.9007 12.4999Z" fill="white"/>
</g>
<defs>
<clipPath id="clip0_449_3948">
<rect width="25" height="25" fill="white"/>
</clipPath>
</defs>
</svg>
